<?xml version="1.0" encoding="utf-8"?>
<!-- Generator: Adobe Illustrator 19.2.1, SVG Export Plug-In . SVG Version: 6.00 Build 0)  -->
<svg version="1.1" id="layer" xmlns="http://www.w3.org/2000/svg" xmlns:xlink="http://www.w3.org/1999/xlink" x="0px" y="0px"
	 viewBox="0 0 652 652" style="enable-background:new 0 0 652 652;" xml:space="preserve">
<style type="text/css">
	.st0{fill:#7EBB00;}
	.st1{fill:#FFFFFF;}
</style>
<g>
	<path class="st0" d="M481.5,513.8c0,31.4-25.7,57.1-57.1,57.1h-208c-31.4,0-57.1-25.7-57.1-57.1V127.9c0-31.4,25.7-57.1,57.1-57.1
		h208c31.4,0,57.1,25.7,57.1,57.1V513.8z"/>
	<path class="st1" d="M188.6,304.4h43.2c11.8,0,20.2,3.5,25.1,10.5c2.9,4.1,4.4,8.9,4.4,14.3c0,6.3-1.8,11.5-5.4,15.5
		c-1.9,2.1-4.5,4.1-8,5.9c5.1,2,9,4.1,11.5,6.6c4.5,4.4,6.7,10.4,6.7,18c0,6.4-2,12.3-6.1,17.5c-6.1,7.8-15.7,11.7-29,11.7h-42.5
		V304.4z M226.7,346.7c5.8,0,10.3-0.8,13.5-2.4c5-2.5,7.6-7,7.6-13.5c0-6.5-2.7-10.9-8-13.2c-3-1.3-7.5-1.9-13.5-1.9h-24.4v31H226.7
		z M231.3,392.8c8.4,0,14.3-2.4,17.9-7.2c2.2-3,3.4-6.7,3.4-11c0-7.3-3.3-12.2-9.8-14.8c-3.5-1.4-8.1-2.1-13.8-2.1h-27.1v35.2H231.3
		z"/>
	<path class="st1" d="M276.5,304.4h45.4c7.5,0,13.6,1.1,18.5,3.3c9.2,4.3,13.8,12.1,13.8,23.6c0,6-1.2,10.9-3.7,14.7
		c-2.5,3.8-5.9,6.9-10.4,9.2c3.9,1.6,6.8,3.7,8.8,6.3c2,2.6,3.1,6.8,3.3,12.6l0.5,13.4c0.1,3.8,0.5,6.6,1,8.5
		c0.8,3.2,2.3,5.2,4.4,6.1v2.2h-16.6c-0.5-0.9-0.8-2-1.1-3.3c-0.3-1.4-0.5-4-0.7-7.9l-0.8-16.7c-0.3-6.5-2.7-10.9-7.1-13.1
		c-2.5-1.2-6.5-1.8-11.8-1.8H290v42.9h-13.5V304.4z M320.4,350.2c6.2,0,11.1-1.3,14.7-3.8c3.6-2.5,5.4-7.1,5.4-13.7
		c0-7.1-2.5-12-7.5-14.5c-2.7-1.4-6.3-2-10.8-2H290v34.2H320.4z"/>
	<path class="st1" d="M439.2,311.7c6.9,6.7,10.7,14.2,11.5,22.7h-13.2c-1.5-6.4-4.4-11.5-8.8-15.3c-4.4-3.8-10.5-5.6-18.5-5.6
		c-9.7,0-17.5,3.5-23.4,10.4c-5.9,6.9-8.9,17.5-8.9,31.8c0,11.7,2.7,21.2,8,28.5c5.4,7.3,13.4,10.9,24,10.9
		c9.8,0,17.3-3.8,22.4-11.5c2.7-4,4.7-9.3,6.1-15.9h13.2c-1.2,10.5-5,19.3-11.6,26.5c-7.9,8.6-18.4,12.9-31.7,12.9
		c-11.5,0-21.1-3.5-28.9-10.5c-10.3-9.3-15.4-23.7-15.4-43.1c0-14.7,3.9-26.8,11.6-36.3c8.3-10.3,19.8-15.4,34.5-15.4
		C422.6,301.7,432.3,305,439.2,311.7"/>
	<polygon class="st1" points="241.5,413.5 241.5,428.9 207.7,428.9 207.7,450.7 239.5,450.7 239.5,466.1 207.7,466.1 207.7,506.4 
		188.6,506.4 188.6,413.5 	"/>
	<path class="st1" d="M245.7,440.5c0.7-6,2.1-11,4.4-15.3c2.2-4.2,5.5-7.6,9.7-10c4.2-2.4,10-3.6,17.1-3.6c7.2,0,12.9,1.2,17.1,3.6
		c4.2,2.4,7.5,5.7,9.7,10c2.2,4.2,3.7,9.3,4.4,15.3c0.7,5.9,1,12.4,1,19.5c0,7.1-0.3,13.6-1,19.5c-0.7,5.9-2.1,11-4.4,15.2
		c-2.2,4.2-5.5,7.5-9.7,9.8c-4.2,2.3-9.9,3.4-17.1,3.4c-7.2,0-12.9-1.1-17.1-3.4c-4.2-2.2-7.5-5.5-9.7-9.8
		c-2.2-4.2-3.7-9.3-4.4-15.2c-0.7-5.9-1-12.4-1-19.5C244.7,452.9,245,446.5,245.7,440.5 M264.3,475.9c0.3,4.4,0.9,7.9,1.9,10.7
		c0.9,2.7,2.2,4.7,4,6c1.7,1.3,4,1.9,6.8,1.9c2.8,0,5.1-0.6,6.8-1.9c1.7-1.3,3-3.3,4-6c0.9-2.7,1.5-6.3,1.9-10.7
		c0.3-4.4,0.5-9.7,0.5-15.9c0-6.2-0.2-11.5-0.5-15.9c-0.3-4.3-0.9-7.9-1.9-10.7c-0.9-2.8-2.3-4.8-4-6.1c-1.7-1.2-4-1.9-6.8-1.9
		c-2.8,0-5.1,0.6-6.8,1.9c-1.7,1.3-3,3.3-4,6.1c-0.9,2.8-1.5,6.3-1.9,10.7c-0.3,4.3-0.5,9.6-0.5,15.9
		C263.8,466.2,263.9,471.5,264.3,475.9"/>
	<path class="st1" d="M316.1,440.5c0.7-6,2.1-11,4.4-15.3c2.3-4.2,5.5-7.6,9.7-10c4.2-2.4,9.9-3.6,17.1-3.6c7.2,0,12.9,1.2,17.1,3.6
		c4.2,2.4,7.5,5.7,9.7,10c2.3,4.2,3.7,9.3,4.4,15.3c0.7,5.9,1,12.4,1,19.5c0,7.1-0.3,13.6-1,19.5c-0.7,5.9-2.1,11-4.4,15.2
		c-2.2,4.2-5.5,7.5-9.7,9.8c-4.2,2.3-9.9,3.4-17.1,3.4c-7.2,0-12.9-1.1-17.1-3.4c-4.2-2.2-7.5-5.5-9.7-9.8
		c-2.2-4.2-3.7-9.3-4.4-15.2c-0.7-5.9-1-12.4-1-19.5C315.1,452.9,315.4,446.5,316.1,440.5 M334.6,475.9c0.3,4.4,0.9,7.9,1.9,10.7
		c0.9,2.7,2.2,4.7,4,6c1.7,1.3,4,1.9,6.8,1.9c2.8,0,5.1-0.6,6.8-1.9c1.7-1.3,3-3.3,4-6c0.9-2.7,1.5-6.3,1.9-10.7
		c0.3-4.4,0.5-9.7,0.5-15.9c0-6.2-0.2-11.5-0.5-15.9c-0.3-4.3-0.9-7.9-1.9-10.7c-0.9-2.8-2.2-4.8-4-6.1c-1.7-1.2-4-1.9-6.8-1.9
		c-2.8,0-5.1,0.6-6.8,1.9c-1.7,1.3-3.1,3.3-4,6.1c-0.9,2.8-1.5,6.3-1.9,10.7c-0.3,4.3-0.5,9.6-0.5,15.9
		C334.2,466.2,334.3,471.5,334.6,475.9"/>
	<path class="st1" d="M419.7,413.5c6.6,0,12,1.1,16,3.2s7.2,5.2,9.5,9.1c2.2,3.9,3.8,8.7,4.6,14.2c0.8,5.5,1.2,11.8,1.2,18.6
		c0,8.2-0.5,15.2-1.5,21.3c-1,6-2.8,11-5.2,14.9c-2.5,3.9-5.8,6.8-9.9,8.7c-4.2,1.9-9.4,2.9-15.8,2.9h-30.1v-92.9H419.7z M416,492.6
		c3.4,0,6-0.6,8.1-1.7c2-1.1,3.6-3,4.8-5.6c1.2-2.6,2-6,2.4-10.3c0.4-4.2,0.6-9.5,0.6-15.9c0-5.3-0.2-9.9-0.5-13.9
		c-0.3-4-1.1-7.3-2.2-10c-1.1-2.6-2.7-4.6-4.9-6c-2.2-1.3-5.1-2-8.7-2h-8.1v65.3H416z"/>
	<path class="st1" d="M203.4,522.7c-0.6-1.2-1.7-1.7-3.4-1.7c-0.9,0-1.6,0.2-2.2,0.7c-0.6,0.5-1,1.2-1.4,2.3
		c-0.3,1.1-0.6,2.4-0.7,4.2c-0.1,1.7-0.2,3.8-0.2,6.3c0,2.6,0.1,4.8,0.3,6.4c0.2,1.6,0.5,2.9,0.8,3.8c0.4,0.9,0.9,1.5,1.4,1.8
		c0.6,0.3,1.2,0.5,2,0.5c0.6,0,1.2-0.1,1.8-0.3s1-0.6,1.4-1.3c0.4-0.6,0.7-1.5,1-2.7c0.2-1.2,0.3-2.7,0.3-4.6h7.2
		c0,1.9-0.1,3.7-0.4,5.4c-0.3,1.7-0.9,3.2-1.7,4.5c-0.8,1.3-2,2.3-3.4,3c-1.5,0.7-3.4,1.1-5.7,1.1c-2.7,0-4.8-0.4-6.4-1.3
		c-1.6-0.8-2.8-2.1-3.7-3.7c-0.8-1.6-1.4-3.5-1.6-5.7c-0.2-2.2-0.4-4.7-0.4-7.3c0-2.6,0.1-5.1,0.4-7.3c0.2-2.2,0.8-4.1,1.6-5.7
		c0.8-1.6,2.1-2.8,3.7-3.7c1.6-0.9,3.7-1.3,6.4-1.3c2.6,0,4.6,0.4,6,1.2c1.5,0.8,2.6,1.8,3.3,3.1c0.7,1.2,1.2,2.6,1.4,4.1
		c0.2,1.4,0.3,2.8,0.3,4.1h-7.2C204.3,525.7,204,523.8,203.4,522.7"/>
	<polygon class="st1" points="234.5,522.2 221.8,522.2 221.8,530.4 233.7,530.4 233.7,536.2 221.8,536.2 221.8,545.6 235,545.6 
		235,551.3 214.6,551.3 214.6,516.4 234.5,516.4 	"/>
	<path class="st1" d="M250.6,516.4c3,0,5.3,0.7,7,2.2c1.7,1.5,2.5,3.7,2.5,6.8c0,2.4-0.5,4.3-1.4,5.7c-1,1.5-2.5,2.4-4.5,2.9v0.1
		c1.8,0.3,3.1,0.8,3.9,1.7c0.8,0.9,1.3,2.3,1.5,4.2c0.1,0.7,0.1,1.4,0.2,2.1c0,0.8,0.1,1.6,0.1,2.6c0.1,1.9,0.2,3.3,0.3,4.3
		c0.2,1,0.6,1.6,1.3,2v0.3h-7.8c-0.4-0.5-0.6-1.1-0.7-1.7c-0.1-0.6-0.2-1.3-0.2-2l-0.2-6.7c-0.1-1.4-0.4-2.4-1-3.2
		c-0.6-0.8-1.7-1.2-3.2-1.2h-3.8v14.8h-7.2v-34.9H250.6z M247.5,531.7c1.7,0,3-0.4,4-1.2c0.9-0.8,1.4-2.1,1.4-4c0-3.2-1.7-4.8-5-4.8
		h-3.4v10.1H247.5z"/>
	<polygon class="st1" points="283.7,522.2 275.9,522.2 275.9,551.3 268.8,551.3 268.8,522.2 261,522.2 261,516.4 283.7,516.4 	"/>
	<rect x="285.9" y="516.4" class="st1" width="7.2" height="34.9"/>
	<polygon class="st1" points="317,516.4 317,522.2 304.3,522.2 304.3,530.4 316.2,530.4 316.2,536.2 304.3,536.2 304.3,551.3 
		297.1,551.3 297.1,516.4 	"/>
	<rect x="319.3" y="516.4" class="st1" width="7.2" height="34.9"/>
	<path class="st1" d="M344.8,522.7c-0.6-1.2-1.7-1.7-3.4-1.7c-0.9,0-1.6,0.2-2.2,0.7c-0.6,0.5-1,1.2-1.4,2.3
		c-0.3,1.1-0.6,2.4-0.7,4.2c-0.1,1.7-0.2,3.8-0.2,6.3c0,2.6,0.1,4.8,0.3,6.4c0.2,1.6,0.5,2.9,0.8,3.8c0.4,0.9,0.9,1.5,1.4,1.8
		c0.6,0.3,1.2,0.5,2,0.5c0.6,0,1.2-0.1,1.8-0.3c0.5-0.2,1-0.6,1.4-1.3c0.4-0.6,0.7-1.5,1-2.7c0.2-1.2,0.3-2.7,0.3-4.6h7.2
		c0,1.9-0.2,3.7-0.4,5.4c-0.3,1.7-0.9,3.2-1.7,4.5c-0.8,1.3-2,2.3-3.4,3c-1.5,0.7-3.4,1.1-5.7,1.1c-2.7,0-4.8-0.4-6.4-1.3
		c-1.6-0.8-2.8-2.1-3.7-3.7c-0.8-1.6-1.4-3.5-1.6-5.7c-0.2-2.2-0.4-4.7-0.4-7.3c0-2.6,0.1-5.1,0.4-7.3c0.3-2.2,0.8-4.1,1.6-5.7
		c0.8-1.6,2.1-2.8,3.7-3.7c1.6-0.9,3.7-1.3,6.4-1.3c2.6,0,4.6,0.4,6,1.2c1.5,0.8,2.6,1.8,3.3,3.1c0.7,1.2,1.2,2.6,1.4,4.1
		c0.2,1.4,0.3,2.8,0.3,4.1h-7.2C345.7,525.7,345.4,523.8,344.8,522.7"/>
	<path class="st1" d="M371.8,516.4l9.4,34.9h-7.5l-1.6-7.4h-9.5l-1.6,7.4h-7.5l9.4-34.9H371.8z M370.9,538.2l-3.4-15.7h-0.1
		l-3.4,15.7H370.9z"/>
	<polygon class="st1" points="400.5,522.2 392.8,522.2 392.8,551.3 385.6,551.3 385.6,522.2 377.8,522.2 377.8,516.4 400.5,516.4 	
		"/>
	<polygon class="st1" points="422.2,522.2 409.5,522.2 409.5,530.4 421.5,530.4 421.5,536.2 409.5,536.2 409.5,545.6 422.7,545.6 
		422.7,551.3 402.4,551.3 402.4,516.4 422.2,516.4 	"/>
	<path class="st1" d="M437.2,516.4c2.5,0,4.5,0.4,6,1.2c1.5,0.8,2.7,1.9,3.6,3.4c0.8,1.5,1.4,3.3,1.7,5.3c0.3,2.1,0.4,4.4,0.4,7
		c0,3.1-0.2,5.7-0.6,8c-0.4,2.3-1,4.1-2,5.6c-0.9,1.5-2.2,2.6-3.7,3.3c-1.6,0.7-3.5,1.1-5.9,1.1h-11.3v-34.9H437.2z M435.8,546.1
		c1.3,0,2.3-0.2,3-0.6s1.4-1.1,1.8-2.1c0.5-1,0.7-2.3,0.9-3.9c0.2-1.6,0.2-3.6,0.2-6c0-2-0.1-3.7-0.2-5.2c-0.1-1.5-0.4-2.7-0.8-3.7
		c-0.4-1-1-1.7-1.8-2.2c-0.8-0.5-1.9-0.8-3.3-0.8h-3v24.5H435.8z"/>
	<path class="st1" d="M195.8,185.5c0,0,47.5,47.5,74.2,105.4c0,0,69.8-133.6,170.7-196c0,0-127.7,53.4-173.7,124.7
		C267.1,219.7,224,179.6,195.8,185.5"/>
</g>
</svg>
