<svg id="Layer_1" data-name="Layer 1" xmlns="http://www.w3.org/2000/svg" viewBox="0 0 200 92.74"><defs><style>.cls-1{fill:#d5001b;}.cls-2,.cls-3{fill:#fff;}.cls-3{fill-rule:evenodd;}.cls-4{fill:#4d4d3d;}</style></defs><rect class="cls-1" x="5" y="14.54" width="190" height="65.07"/><path class="cls-2" d="M15,35c1.59,0,2.46-.69,2.46-2.86H15.76c0,.64,0,1.65-.78,1.65-1,0-1.08-.9-1.08-3s.13-3,1.08-3c.51,0,.7.4.7,1.48h1.67c.06-1.74-.64-2.7-2.37-2.7-2.8,0-2.8,2.05-2.8,4.2S12.18,35,15,35"/><polygon class="cls-2" points="23.04 34.89 23.04 33.64 20.21 33.64 20.21 31.27 22.73 31.27 22.73 30.02 20.21 30.02 20.21 28.02 22.95 28.02 22.95 26.77 18.52 26.77 18.52 34.89 23.04 34.89"/><path class="cls-3" d="M25.8,31.53h.44c1.31,0,1.22.82,1.22,1.79a3.65,3.65,0,0,0,.18,1.57H29.3a11,11,0,0,1-.19-2.39,1.43,1.43,0,0,0-1.47-1.59v0a1.74,1.74,0,0,0,1.5-2c0-1.38-.74-2.12-1.9-2.12H24.11v8.12H25.8Zm0-3.51h.76c.54,0,.86.29.86,1.06,0,.52-.19,1.2-.86,1.2H25.8Z"/><polygon class="cls-2" points="29.75 26.77 29.75 28.12 31.64 28.12 31.64 34.89 33.34 34.89 33.34 28.12 35.23 28.12 35.23 26.77 29.75 26.77"/><rect class="cls-2" x="36.02" y="26.77" width="1.7" height="8.12"/><polygon class="cls-2" points="40.81 34.89 40.81 31.35 43.21 31.35 43.21 30.1 40.81 30.1 40.81 28.02 43.33 28.02 43.33 26.77 39.11 26.77 39.11 34.89 40.81 34.89"/><rect class="cls-2" x="44.13" y="26.77" width="1.7" height="8.12"/><path class="cls-2" d="M50,35c1.59,0,2.45-.69,2.45-2.86H50.76c0,.64,0,1.65-.78,1.65-1,0-1.08-.9-1.08-3s.12-3,1.08-3c.51,0,.7.4.7,1.48h1.66c.07-1.74-.63-2.7-2.36-2.7-2.8,0-2.8,2.05-2.8,4.2S47.18,35,50,35"/><path class="cls-3" d="M57,31.84H55.37l.77-3.51h0Zm-2.42,3.05.46-1.8h2.32l.45,1.8h1.79l-2.21-8.12H55.14l-2.25,8.12Z"/><polygon class="cls-2" points="60.08 28.02 63.33 28.02 59.92 33.4 59.92 34.89 65.05 34.89 65.05 33.64 61.55 33.64 64.97 28.24 64.97 26.77 60.08 26.77 60.08 28.02"/><rect class="cls-2" x="66.01" y="26.77" width="1.7" height="8.12"/><path class="cls-3" d="M71.85,35c2.8,0,2.8-2.07,2.8-4.19s0-4.2-2.8-4.2-2.8,2.05-2.8,4.2,0,4.19,2.8,4.19m0-1.21c-.95,0-1.07-.9-1.07-3s.12-3,1.07-3,1.08.9,1.08,3-.12,3-1.08,3"/><polygon class="cls-2" points="77.6 34.89 77.6 28.95 77.62 28.95 79.84 34.89 82.08 34.89 82.08 26.77 80.49 26.77 80.49 32.39 80.47 32.39 78.31 26.77 76.02 26.77 76.02 34.89 77.6 34.89"/><polygon class="cls-2" points="88.03 34.89 88.03 33.64 85.21 33.64 85.21 31.27 87.72 31.27 87.72 30.02 85.21 30.02 85.21 28.02 87.94 28.02 87.94 26.77 83.51 26.77 83.51 34.89 88.03 34.89"/><path class="cls-3" d="M12.29,45.91h2.77c2.9,0,2.71-2.86,2.71-4.1,0-2.53-.41-4-2.64-4H12.29ZM14,39h.88c1.18,0,1.18,1.32,1.18,2.81,0,2-.2,2.81-1.23,2.81H14Z"/><rect class="cls-2" x="19.13" y="37.79" width="1.7" height="8.12"/><path class="cls-3" d="M24.76,45.91h1.7v-3.3h1.26A2.1,2.1,0,0,0,30,40.22c0-1.48-.6-2.43-2.16-2.43H24.76ZM26.46,39h.86c.76,0,.94.56.94,1.23s-.35,1.08-.85,1.08h-.95Z"/><path class="cls-3" d="M32.67,42.55h.44c1.3,0,1.21.82,1.21,1.79a3.77,3.77,0,0,0,.18,1.57h1.67A11,11,0,0,1,36,43.53a1.45,1.45,0,0,0-1.48-1.6v0a1.76,1.76,0,0,0,1.51-2c0-1.39-.74-2.13-1.9-2.13H31v8.12h1.7Zm0-3.51h.75c.54,0,.87.29.87,1.07,0,.52-.19,1.19-.87,1.19h-.75Z"/><path class="cls-3" d="M40,46.05c2.8,0,2.8-2.07,2.8-4.2s0-4.19-2.8-4.19-2.8,2-2.8,4.19,0,4.2,2.8,4.2m0-1.22c-1,0-1.08-.9-1.08-3s.12-3,1.08-3,1.08.9,1.08,3-.12,3-1.08,3"/><path class="cls-3" d="M44.16,45.91h2.77c2.9,0,2.71-2.86,2.71-4.1,0-2.53-.41-4-2.64-4H44.16ZM45.86,39h.88c1.18,0,1.18,1.32,1.18,2.81,0,2-.2,2.81-1.24,2.81h-.82Z"/><path class="cls-3" d="M53.72,46.05c2.8,0,2.8-2.07,2.8-4.2s0-4.19-2.8-4.19-2.8,2-2.8,4.19,0,4.2,2.8,4.2m0-1.22c-.95,0-1.08-.9-1.08-3s.13-3,1.08-3,1.08.9,1.08,3-.12,3-1.08,3"/><polygon class="cls-2" points="57.23 37.79 57.23 39.14 59.12 39.14 59.12 45.91 60.82 45.91 60.82 39.14 62.71 39.14 62.71 37.79 57.23 37.79"/><polygon class="cls-2" points="62.85 37.79 62.85 39.14 64.74 39.14 64.74 45.91 66.44 45.91 66.44 39.14 68.33 39.14 68.33 37.79 62.85 37.79"/><path class="cls-3" d="M71.84,46.05c2.8,0,2.8-2.07,2.8-4.2s0-4.19-2.8-4.19-2.8,2-2.8,4.19,0,4.2,2.8,4.2m0-1.22c-1,0-1.08-.9-1.08-3s.13-3,1.08-3,1.08.9,1.08,3-.12,3-1.08,3"/><path class="cls-3" d="M15.67,62.06c.79,0,2.76-.1,2.76-2.37,0-1.22-.34-2.08-1.67-2.27v0a1.82,1.82,0,0,0,1.52-2c0-1.91-1.17-2.32-2.6-2.32H12.36v9Zm-1.44-7.57h1.15a1.07,1.07,0,0,1,1.08,1.14,1,1,0,0,1-1,1.14H14.23Zm0,3.65h1.09c.94,0,1.24.49,1.24,1.28a1.12,1.12,0,0,1-1.29,1.27h-1Z"/><path class="cls-2" d="M24.08,53.11v6.23c0,1-.37,1.53-1.19,1.53s-1.15-.43-1.15-1.53V53.11H19.87v6.35c0,1.68,1,2.75,3.05,2.75,2.28,0,3-1.41,3-2.75V53.11Z"/><path class="cls-3" d="M29.31,58.36h.49c1.43,0,1.34.9,1.34,2a4.23,4.23,0,0,0,.19,1.74h1.84A11.88,11.88,0,0,1,33,59.43a1.59,1.59,0,0,0-1.63-1.76v0A1.93,1.93,0,0,0,33,55.45c0-1.52-.81-2.34-2.09-2.34H27.44v9h1.87Zm0-3.87h.83c.6,0,1,.32,1,1.18,0,.57-.21,1.31-1,1.31h-.83Z"/><polygon class="cls-2" points="39.35 62.06 39.35 60.69 36.24 60.69 36.24 58.07 39.02 58.07 39.02 56.7 36.24 56.7 36.24 54.49 39.25 54.49 39.25 53.11 34.37 53.11 34.37 62.06 39.35 62.06"/><path class="cls-3" d="M44.4,58.7H42.61l.86-3.86h0Zm-2.67,3.36.51-2h2.55l.5,2h2l-2.43-9H42.36l-2.47,9Z"/><path class="cls-2" d="M52.32,53.11v6.23c0,1-.37,1.53-1.19,1.53S50,60.44,50,59.34V53.11H48.1v6.35c0,1.68,1,2.75,3,2.75,2.28,0,3-1.41,3-2.75V53.11Z"/><polygon class="cls-2" points="59.95 62.06 62.14 62.06 64.51 53.11 62.66 53.11 61.1 59.62 61.08 59.62 59.69 53.11 57.74 53.11 59.95 62.06"/><polygon class="cls-2" points="70.33 62.06 70.33 60.69 67.23 60.69 67.23 58.07 70 58.07 70 56.7 67.23 56.7 67.23 54.49 70.24 54.49 70.24 53.11 65.35 53.11 65.35 62.06 70.33 62.06"/><path class="cls-3" d="M73.39,58.36h.48c1.44,0,1.34.9,1.34,2a4.07,4.07,0,0,0,.2,1.74h1.83A12.52,12.52,0,0,1,77,59.43a1.59,1.59,0,0,0-1.62-1.76v0a1.93,1.93,0,0,0,1.66-2.2c0-1.52-.82-2.34-2.1-2.34H71.52v9h1.87Zm0-3.87h.83c.59,0,1,.32,1,1.18,0,.57-.21,1.31-1,1.31h-.83Z"/><rect class="cls-2" x="78.44" y="53.11" width="1.87" height="8.95"/><polygon class="cls-2" points="81.19 53.11 81.19 54.6 83.27 54.6 83.27 62.06 85.14 62.06 85.14 54.6 87.23 54.6 87.23 53.11 81.19 53.11"/><path class="cls-3" d="M91.19,58.7H89.41l.85-3.86h0Zm-2.66,3.36.51-2h2.55l.5,2h2l-2.43-9H89.16l-2.48,9Z"/><path class="cls-2" d="M100.49,59.62c0-2.81-3.77-2.67-3.77-4.36a.88.88,0,0,1,1-1c.75,0,.86.68.86,1.35h1.83c.12-1.87-.78-2.69-2.61-2.69-2.28,0-3,1.12-3,2.52,0,2.66,3.77,2.76,3.77,4.38a.89.89,0,0,1-.94,1c-1,0-1.07-.72-1.07-1.57H94.71c-.1,1.55.34,2.91,2.65,2.91,1.43,0,3.13-.27,3.13-2.59"/><path class="cls-2" d="M14.91,74.49c1.56,0,2.4-.69,2.4-2.81H15.67c0,.62,0,1.62-.76,1.62-.93,0-1.06-.89-1.06-2.92s.13-2.92,1.06-2.92c.5,0,.69.39.69,1.45h1.63c.06-1.71-.62-2.64-2.32-2.64-2.74,0-2.74,2-2.74,4.11s0,4.11,2.74,4.11"/><path class="cls-3" d="M22.7,71.82c.06-1.78-.17-3.14-2.27-3.14S18.16,70,18.16,71.5c0,1.74.27,3,2.27,3a2.28,2.28,0,0,0,1.64-.55,1.94,1.94,0,0,0,.6-1.44H21.09c0,.47-.11,1-.66,1s-.7-1-.7-1.65Zm-3-.87c0-.48,0-1.31.7-1.31s.72.77.72,1.31Z"/><path class="cls-2" d="M23.81,68.79v5.56h1.55v-3c0-.55,0-1.34,1.39-1.25V68.68a1.43,1.43,0,0,0-1.45.82h0v-.71Z"/><path class="cls-2" d="M26.84,69.75h.63v3.42c0,.35.18,1.24,1.52,1.24a5.17,5.17,0,0,0,.81-.06v-1a.83.83,0,0,1-.28,0c-.51,0-.5-.28-.5-.7v-3h.81v-1H29V67.21l-1.55.7v.88h-.63Z"/><path class="cls-3" d="M30.66,67.62h1.56V66.4H30.66Zm1.56,1.17H30.66v5.56h1.56Z"/><path class="cls-2" d="M36,66.37a4.93,4.93,0,0,0-.55,0c-1.89,0-1.76.85-1.75,2.45H33v1h.69v4.6h1.55v-4.6H36v-1h-.73v-.67c0-.57.14-.81.76-.76Z"/><path class="cls-3" d="M36.79,67.62h1.55V66.4H36.79Zm1.55,1.17H36.79v5.56h1.55Z"/><path class="cls-2" d="M44.1,70.77c0-1.45-.81-2.09-2.25-2.09-2,0-2.27,1.3-2.27,2.82,0,1.74.27,3,2.27,3,1.46,0,2.27-.66,2.27-2.17H42.57c0,.73-.23,1.17-.72,1.17s-.71-.36-.71-2.06c0-1.15,0-1.74.71-1.74.49,0,.7.28.7,1.1Z"/><path class="cls-3" d="M49.45,70.54c0-1-.26-1.86-2.23-1.86a2.44,2.44,0,0,0-1.45.36,1.52,1.52,0,0,0-.58,1.36h1.52c0-.44,0-.85.59-.85s.63.34.63.81v.44c-1.45,0-2.87,0-2.87,1.89,0,1,.4,1.78,1.48,1.78A1.54,1.54,0,0,0,48,73.62h0l.07.73h1.44c0-.34-.07-.69-.07-1Zm-1.52,1.12c0,.61.14,1.85-.77,1.85-.51,0-.58-.49-.58-.89,0-1,.58-.92,1.35-1"/><path class="cls-2" d="M50.11,69.75h.63v3.42c0,.35.17,1.24,1.52,1.24a5,5,0,0,0,.8-.06v-1a.8.8,0,0,1-.27,0c-.51,0-.5-.28-.5-.7v-3h.8v-1h-.8V67.21l-1.55.7v.88h-.63Z"/><path class="cls-3" d="M53.93,67.62h1.55V66.4H53.93Zm1.55,1.17H53.93v5.56h1.55Z"/><path class="cls-3" d="M59,74.47c2,0,2.27-1.23,2.27-3,0-1.52-.22-2.82-2.27-2.82S56.73,70,56.73,71.5c0,1.74.26,3,2.27,3m0-1c-.58,0-.72-.36-.72-2.06,0-1.15.06-1.74.72-1.74s.71.59.71,1.74c0,1.7-.14,2.06-.71,2.06"/><path class="cls-2" d="M63.92,68.79H62.37v5.56h1.55V70.52c0-.5.09-.88.59-.88s.58.38.58.88v3.83h1.55V69.89a1.26,1.26,0,0,0-1.38-1.21,1.67,1.67,0,0,0-.76.15,1.37,1.37,0,0,0-.56.52h0Z"/><path class="cls-4" d="M143.61,91.08h.11A48.16,48.16,0,0,0,157.85,89a24.74,24.74,0,0,0,12.24-9.28C174.68,73,178.84,60,179,47.09v0c-.18-12.92-4.34-25.9-8.93-32.61A24.45,24.45,0,0,0,158,5.14a50.51,50.51,0,0,0-28.69,0,24.4,24.4,0,0,0-12.13,9.3c-4.59,6.71-8.76,19.69-8.94,32.61v0c.18,12.92,4.35,25.9,8.94,32.62A24.4,24.4,0,0,0,129.27,89a49.2,49.2,0,0,0,14.24,2.1Z"/><path class="cls-2" d="M176.29,47.07a74.1,74.1,0,0,1-5.67,27.84c-3.16,7.18-8,11.55-15.1,13.49a48.87,48.87,0,0,1-24,0c-7.11-1.94-11.94-6.31-15.11-13.49a74.11,74.11,0,0,1-5.66-27.84,74.11,74.11,0,0,1,5.66-27.84c3.17-7.18,8-11.55,15.11-13.49a48.87,48.87,0,0,1,24,0c7.1,1.94,11.94,6.31,15.1,13.49a74.1,74.1,0,0,1,5.67,27.84"/><path class="cls-4" d="M143.67,14.65A38.17,38.17,0,0,1,153.59,16,11.47,11.47,0,0,1,161,22.35c3,6.41,5,15.65,5,24.72s-2,18.31-5,24.72a11.47,11.47,0,0,1-7.45,6.38,38.17,38.17,0,0,1-9.92,1.32h-.11a38.25,38.25,0,0,1-9.93-1.32,11.51,11.51,0,0,1-7.45-6.38c-3-6.41-5-15.64-5-24.72s2-18.31,5-24.72A11.51,11.51,0,0,1,133.63,16a38.25,38.25,0,0,1,9.93-1.32Z"/><path class="cls-2" d="M148.48,27a8.22,8.22,0,0,1-.58-1"/><rect class="cls-2" x="127.14" y="45.33" width="11.22" height="3.26"/><path class="cls-2" d="M135.83,73.59a2.58,2.58,0,0,1-.35-1.23h6.41a3,3,0,0,1-1.32,2.35,3.26,3.26,0,0,1-4.74-1.12"/><path class="cls-2" d="M142.76,71h-3.45V69.39h3.46l1.08-1.29L145,69.39h3.45V71H145v4h-2.21Z"/><path class="cls-2" d="M143.16,66c.71-.23,1.71-.64,1.91-1.32a5,5,0,0,1,1.22-2.77,1,1,0,0,0,.23-1,3.26,3.26,0,0,1,2.64,2,3.4,3.4,0,0,1-3.8,4.61,3.51,3.51,0,0,1-2.2-1.52"/><path class="cls-2" d="M134.88,51.71a2.55,2.55,0,0,0-2.13-.1,1.8,1.8,0,0,0-1.18,1.45c0,1.95,0,2.55,0,4.68,0,.34-.21.49-.64.49s-.61-.19-.61-.5V53a2.09,2.09,0,0,0-.47-1.39l-2.46.81-.23.08c.62.46.92.48,1,1.24v6.1l0,.33.09.21.07.2.09.15a2.47,2.47,0,0,0,1.57,1,4.38,4.38,0,0,0,.8.1,3,3,0,0,0,1.9-.5c1-.79.79-2.19.82-4.21a1.39,1.39,0,0,1,.4-1.22A1.35,1.35,0,0,1,135,55.7a2.32,2.32,0,0,1,.93.44c0-1.75.07-3.9-1-4.43"/><path class="cls-2" d="M157.78,59.37c-1.8-1.77-4.92-4.24-5.17-5.29a7,7,0,0,1-.2-2.37L154,50.45c0,1.25-.22,2.52.38,3.26,1.47,1.47,2.81,2.8,4.13,4.09a1.9,1.9,0,0,1,.57,2,6.73,6.73,0,0,1-.6,1,1.92,1.92,0,0,0-.69-1.47"/><path class="cls-2" d="M147.58,50.38c1.37,0,1.82,0,3.25,0V60h-3.26Z"/><path class="cls-2" d="M154.87,51.27c.34-.38.46-.52.87-.92l.82,1v2.74c1.16-.56.87-2.21.87-3.63.69.56,1,.88,1.7,1.5.37,1.64-.62,2.57-1.36,3.72l-2.9-2.78Z"/><path class="cls-2" d="M157.52,43.9l.43-1.84,1.43-.21V37.3c-.54.08-.77.14-1.22.19V34c-.75.15-1.54.42-2.33.6v5.73c0,.28-.45.37-.54.37h-.12c-.28,0-.57-.2-.57-.39V34.83l-2.27.29v2.33a27.88,27.88,0,0,1-3.15,4.61c1.23.09,1.32.09,2.54.2l.75,1.64Z"/><path class="cls-2" d="M131.62,42.76c0-1.5-.1-2.49-.14-4a1.61,1.61,0,0,1,1.29.43c-.06,1.9-.06,1.88-.1,3.86h-1Z"/><path class="cls-2" d="M131.41,34.11c-.24-1.49-.26-1.6-.4-2.68h-.95V30.38h4.17v1h-1l-.42,3.49a3.84,3.84,0,0,0-1.43-.81"/><path class="cls-2" d="M131.25,29.64c-1.4-1.5-1.5-3.75-1.23-5.78h0a2.68,2.68,0,0,0,1.49,1.64c-.09-.39-.44-.76-.55-1.18a3,3,0,0,1,.24-2.71,2.58,2.58,0,0,1,1.52-1,3.14,3.14,0,0,0,0,2.18,7.67,7.67,0,0,0,.71-.61,2.18,2.18,0,0,1,.26-.22,6.6,6.6,0,0,1,.82,4.2l-.23.6c-.08-1-.24-1.44-.9-1.8-.08.57.28,1,.37,1.72a3.08,3.08,0,0,1-.66,2.95Z"/><path class="cls-2" d="M148.48,27,147,28.62l-.81-.82L147.9,26"/><path class="cls-2" d="M150.36,23.19c.3-1.37.45-2.94,1.95-3.51a2.05,2.05,0,0,1,1.82.33,1.89,1.89,0,0,1,.68,2c-.45,1.59-2.22,1.89-3.66,2.27Z"/><polygon class="cls-2" points="160.33 45.33 160.33 48.62 149.1 48.6 149.1 45.34 160.33 45.33"/><path class="cls-2" d="M133.22,67.26c-.45-2.07,2.05-2.82,2.64-4.54.47-2.88.61-5.91,2.61-8.16a16.22,16.22,0,0,1,4.57-11,17.2,17.2,0,0,0-.82-2.67,1.4,1.4,0,0,1-1-.41,2.14,2.14,0,0,1-.44-1.09A16,16,0,0,1,137,43c-.26.14-.59-.16-1.07-.61-1.75-1.38-2.05-4.51-4.71-4.37-1.22-.41-1.16-1.83-1.36-2.91a2,2,0,0,1,1.73-.09c1.66.89,2.77,2.76,4.34,4a7.16,7.16,0,0,0,1.19.94,9.28,9.28,0,0,0,2.55-3,2.48,2.48,0,0,1,2.19-1.13l.63-.75-.34-1.86a13.38,13.38,0,0,1-1.62-2.64c.22-1.07.37-2.31,1.45-2.9.71-.44,1.29.56,1.86-.07a1.23,1.23,0,0,1,1.08.26,5.47,5.47,0,0,1,1,2.41,17.61,17.61,0,0,1-1.09,2.48c-.1.18-.34.23-.51.36a2.44,2.44,0,0,0,.44,1.06,2.39,2.39,0,0,0,1,.06A3,3,0,0,1,148,32.58l1.86-1.21c-.3-1.41.61-2.65.1-4.06a3.5,3.5,0,0,1-1.59-2.64,4.55,4.55,0,0,1,.87-1.71l.07.08a9,9,0,0,1,2.27,3.86,35.32,35.32,0,0,1,.24,5.75A19.16,19.16,0,0,1,148.41,35l-.84,1.62c-.1,1.68-.6,3.19-.85,4.81.72,2,1.58,4.57.94,6.39a6.38,6.38,0,0,1-2.26,2.27l-1.89,1.53c1.9,2.1,1.44,4.49,1.52,7.55,0,.74,1.31,1.35.6,2.19s-1.51,1.71-1.35,3a3.19,3.19,0,0,1-2.65,1.19.25.25,0,0,1-.26-.24,11.59,11.59,0,0,1,.75-1.39c.68-1,.37-2.48,1.21-3.45-.69-2.27-1.75-4.38-2-6.8l0-.15a3.78,3.78,0,0,0,0,3.08c-1.88,2.37-3.91,4.64-3.91,7.76a36.72,36.72,0,0,0-2.54,4.23c-.2.25-.58,0-.8-.1a2,2,0,0,1-.85-1.18"/><path class="cls-2" d="M153.83,57c1.8,1.77,4.92,4.24,5.17,5.29a7,7,0,0,1,.2,2.37c-.52.4-.95.76-1.58,1.25,0-1.25.22-2.52-.38-3.26-1.47-1.47-2.81-2.79-4.13-4.09a1.91,1.91,0,0,1-.57-2,7,7,0,0,1,.59-1,1.89,1.89,0,0,0,.7,1.47"/><path class="cls-2" d="M156.74,65.14c-.34.38-.47.52-.87.91l-.82-1V62.33c-1.16.56-.87,2.2-.87,3.62-.69-.56-1-.87-1.7-1.49-.36-1.64.62-2.58,1.36-3.72l2.9,2.77Z"/><path class="cls-2" d="M151.89,73.59a2.7,2.7,0,0,0,.35-1.23h-6.42a3,3,0,0,0,1.33,2.35,3.27,3.27,0,0,0,4.74-1.12"/><path class="cls-4" d="M144.74,87.6c0-1.79,1.71-2.69,2.81-3.87a1.22,1.22,0,0,0,.2-1.32.81.81,0,0,0-.56-.49,1,1,0,0,0-1,.18,1.46,1.46,0,0,0-.42,1.17l-1.21.07a2.31,2.31,0,0,1,.47-1.84,2.74,2.74,0,0,1,2.26-.72,2.15,2.15,0,0,1,1.38,3.56c-.72.77-1.66,1.18-2.25,2l3.08-.18c0,.38,0,.75.06,1.09Z"/><path class="cls-4" d="M133.81,79.9V80l-2,6.14-1.28-.42,1.38-4.21,0-.07c-.51-.18-1.13-.35-1.63-.53l.27-.8a2,2,0,0,0,1.87-.18,2,2,0,0,0,.36-.33Z"/><path class="cls-4" d="M156.64,84.51a1.73,1.73,0,0,1-1.64.41,1,1,0,0,1-.25-1.77,2,2,0,0,1,.61-.28,2.35,2.35,0,0,1,.68,0,1,1,0,0,1,.84.82.94.94,0,0,1-.24.86m-2.69-3a.87.87,0,0,1,.12-1,1.36,1.36,0,0,1,.64-.34,1.21,1.21,0,0,1,.73,0A.86.86,0,0,1,156,81a.78.78,0,0,1-.27.58,1.4,1.4,0,0,1-.6.29,1.43,1.43,0,0,1-.68,0,.79.79,0,0,1-.5-.38m4.24,1.75A1.65,1.65,0,0,0,157,82l-.39-.09a1.45,1.45,0,0,0,.64-1.41,1.61,1.61,0,0,0-1.13-1.26,3.19,3.19,0,0,0-1.65,0A3,3,0,0,0,153,80a1.58,1.58,0,0,0-.41,1.63,1.43,1.43,0,0,0,1.21,1l-.3.25a1.67,1.67,0,0,0-.44,1.69,1.93,1.93,0,0,0,1.36,1.4,3.49,3.49,0,0,0,1.7,0,3.68,3.68,0,0,0,1.5-.77,2,2,0,0,0,.56-1.89"/><path class="cls-4" d="M139.73,86.31a1.48,1.48,0,0,1-.86.16,1.46,1.46,0,0,1-.83-.26,1,1,0,0,1-.4-.81,1,1,0,0,1,.68-1,2,2,0,0,1,.68-.07,1.78,1.78,0,0,1,.66.16,1,1,0,0,1,.55,1,1,1,0,0,1-.48.75M138,82.68a.86.86,0,0,1,.41-.91,1.39,1.39,0,0,1,.71-.14,1.29,1.29,0,0,1,.69.23.83.83,0,0,1,.29,1,.81.81,0,0,1-.42.47,1.46,1.46,0,0,1-.67.09,1.53,1.53,0,0,1-.65-.17.86.86,0,0,1-.36-.52m3.52,2.93a1.67,1.67,0,0,0-.74-1.57l-.34-.2a1.45,1.45,0,0,0,1-1.16,1.61,1.61,0,0,0-.7-1.53,3,3,0,0,0-1.58-.47,3,3,0,0,0-1.63.27,1.63,1.63,0,0,0-.88,1.44,1.45,1.45,0,0,0,.88,1.28l-.37.15a1.65,1.65,0,0,0-.92,1.48,1.94,1.94,0,0,0,.88,1.75,3.63,3.63,0,0,0,1.63.48,3.47,3.47,0,0,0,1.66-.28,2,2,0,0,0,1.09-1.64"/><rect class="cls-4" x="164" y="23.18" width="6.52" height="1.36" transform="translate(4.24 68.23) rotate(-23.34)"/><path class="cls-4" d="M148,12.84l-1.54-6.7,1.41.14c.29,1.66.58,3.54.92,4.94.6-1.3,1.27-3.09,1.89-4.66L152,6.7,149.2,13Z"/><polygon class="cls-4" points="122.5 16.69 121.04 19.29 119.81 18.6 121.48 15.62 120.54 15.09 118.21 19.27 123.89 22.45 126.23 18.27 125.29 17.74 123.61 20.73 122.02 19.84 123.48 17.23 122.5 16.69"/><path class="cls-4" d="M118.18,47.34h-1.83c0-1.45-.19-2.3.67-2.47a.92.92,0,0,1,.89.18c.37.35.25,1,.27,2.29m-2.81,0h-1.6c0-1.5-.2-2.29.71-2.39.54,0,.69.08.82.41a8.48,8.48,0,0,1,.07,2m3.67-3a1.79,1.79,0,0,0-1.84-.94,1.75,1.75,0,0,0-1.43,1.2,1.32,1.32,0,0,0-1.1-1,1.49,1.49,0,0,0-1.59.65c-.43.55-.25,3-.29,4.37h6.47v-.48c0-2.57.12-2.88-.22-3.83"/><polygon class="cls-4" points="170.58 26.82 171.61 26.55 172.92 31.65 171.89 31.92 171.4 30.03 166.17 31.38 165.83 30.06 171.06 28.72 170.58 26.82"/><path class="cls-4" d="M137.67,13.22a3,3,0,0,1-2.08-.32,1.56,1.56,0,0,1-.8-1.16L134,7.08l1.33-.21.75,4.65a.93.93,0,0,0,.77.69,1.44,1.44,0,0,0,.62,0"/><path class="cls-4" d="M137.68,13.22a3,3,0,0,0,1.87-1,1.56,1.56,0,0,0,.39-1.36l-.74-4.65-1.33.2.74,4.66a1,1,0,0,1-.51.9,1.65,1.65,0,0,1-.59.2"/><path class="cls-4" d="M169.82,38.11l-.22-1.61,2.81.43h0Zm3.77-2-6.77-1.36L167,36l1.48.27.32,2.33-1.34.66.18,1.33,6.14-3.17Z"/><path class="cls-4" d="M172.61,47.25l.12,0,.15,0,.1,0a1.32,1.32,0,0,0,.52-1.27,1.15,1.15,0,0,0-.61-1.12.55.55,0,0,0-.67.15c-.74,1.09-.23,3.4-2.13,3.8a1.9,1.9,0,0,1-2-.88,3.88,3.88,0,0,1,0-3.71,2,2,0,0,1,1.62-.86l.08,1.24a1.27,1.27,0,0,0-1,.67,2,2,0,0,0,.27,2.07.74.74,0,0,0,.81.06c.75-.54.6-1.89,1-2.8a1.87,1.87,0,0,1,.84-1,1.93,1.93,0,0,1,2.07.35,3.32,3.32,0,0,1,.5,3.39,2,2,0,0,1-1.72,1.22l-.08-1.25Z"/><path class="cls-4" d="M120.15,37.43a3,3,0,0,1-1,1.87,1.57,1.57,0,0,1-1.35.4L113.19,39l.21-1.32,4.65.73a1,1,0,0,0,.9-.52,1.65,1.65,0,0,0,.2-.59"/><path class="cls-4" d="M120.15,37.41a3,3,0,0,0-.33-2.07,1.58,1.58,0,0,0-1.16-.8L114,33.81l-.21,1.33,4.66.73a1,1,0,0,1,.69.77,1.44,1.44,0,0,1,0,.62"/><path class="cls-4" d="M128.17,13.77,127.45,11h0v0l2.11,1.9Zm-.79-4.22-1.2.73L127.61,17l1.14-.69-.33-1.46,2-1.22,1.14,1,1.14-.69Z"/><polygon class="cls-4" points="159.01 11.67 156.26 10.52 156.81 9.23 159.96 10.54 160.38 9.55 155.96 7.7 153.44 13.71 157.86 15.56 158.28 14.56 155.12 13.24 155.83 11.56 158.58 12.72 159.01 11.67"/><path class="cls-4" d="M118,28.45,116.4,28c.35-1.12.51-2.24,1.3-2.17a1,1,0,0,1,.72.36c.3.38-.09,1.21-.39,2.29m1.3-2.33a1.43,1.43,0,0,0-.4-1.18,1.9,1.9,0,0,0-1.49-.5C116,24.66,115.8,26.33,115,29l6.24,1.86.39-1.3-2.47-.74-.1,0a9,9,0,0,1,.53-1.53c.45-1,2.1,0,2.76-.11l.38-1.3c-1.12.07-2.61-.93-3.4.3"/><path class="cls-4" d="M165.85,17.19a1,1,0,0,1-.71.36c-.49,0-.93-.78-1.63-1.65l1.36-1c.69.94,1.5,1.73,1,2.33m-1-4.05-5.18,3.95.83,1.08,2-1.56.09-.06a7.89,7.89,0,0,1,.92,1.33c.57,1-1.22,1.71-1.52,2.29l.81,1.07c.61-.94,2.29-1.56,1.76-2.92a1.46,1.46,0,0,0,1.19.37,1.87,1.87,0,0,0,1.28-.91c.67-1.3-.56-2.44-2.22-4.64"/></svg>