<?xml version="1.0" encoding="utf-8"?>
<!-- Generator: Adobe Illustrator 26.0.2, SVG Export Plug-In . SVG Version: 6.00 Build 0)  -->
<svg version="1.1" id="Layer_1" xmlns="http://www.w3.org/2000/svg" xmlns:xlink="http://www.w3.org/1999/xlink" x="0px" y="0px"
	 viewBox="0 0 88.8 88.8" style="enable-background:new 0 0 88.8 88.8;" xml:space="preserve">
<style type="text/css">
	.st0{fill:#272F78;}
</style>
<g id="Layer_1_00000170973413941592732080000013117985674364094127_">
	<path class="st0" d="M2.6,15.3v1.2c0,27.5,14.6,53.4,37.9,67.7l3.8,2.3l3.8-2.3C71.5,69.9,86.2,44,86.2,16.5v-1.2L44.4,2.5
		L2.6,15.3z M46.3,81l-1.9,1.2L42.5,81C20.4,67.6,6.6,43.4,6.1,17.7L44.4,6l38.3,11.7C82.2,43.4,68.4,67.6,46.3,81z"/>
	<polygon class="st0" points="28.2,44.8 25.8,47.3 39.2,60.7 73.5,26.4 71,24 39.2,55.8 	"/>
</g>
</svg>
