<?xml version="1.0" encoding="utf-8"?>
<!-- Generator: Adobe Illustrator 26.0.2, SVG Export Plug-In . SVG Version: 6.00 Build 0)  -->
<svg version="1.1" id="Layer_1" xmlns="http://www.w3.org/2000/svg" xmlns:xlink="http://www.w3.org/1999/xlink" x="0px" y="0px"
	 viewBox="0 0 512 512" style="enable-background:new 0 0 512 512;" xml:space="preserve">
<style type="text/css">
	.st0{fill:#272F78;}
</style>
<path class="st0" d="M474.2,235.5l-151-56.3V98.7l40.2,16.7c1.9,0.8,4-0.1,4.8-2c0.8-1.9-0.1-4-2-4.8L256.1,63
	c-0.9-0.4-1.9-0.4-2.8,0l-107.5,45.7c-1.9,0.7-2.8,2.8-2.1,4.7c0.7,1.9,2.8,2.8,4.7,2.1c0.1,0,0.2-0.1,0.3-0.1l40.2-17.1v80.9
	l-151,56.3c-1.9,0.8-2.7,2.9-2,4.8c0.5,1.3,1.8,2.2,3.2,2.2c0.4,0,0.9-0.1,1.3-0.2l24.2-9V442h-22c-2,0-3.6,1.6-3.6,3.6
	c0,2,1.6,3.6,3.6,3.6h427c2,0,3.6-1.6,3.6-3.6c0-2-1.6-3.6-3.6-3.6h-22V233.3l24.2,9c0.4,0.2,0.8,0.2,1.3,0.2c2-0.1,3.6-1.8,3.5-3.8
	C476.5,237.3,475.6,236.1,474.2,235.5L474.2,235.5z M368.9,295.5H143.1v-11.9h225.9V295.5z M196.1,402.5h33.6v37.8h-33.6V402.5z
	 M229.7,395.3h-33.6v-37.8h33.6V395.3z M188.8,353.8V382h-45.7v-51.1h45.7V353.8z M143.1,389.2h45.7v51.1h-45.7V389.2z M237,353.9
	c0-2-1.6-3.6-3.6-3.6h0h-37.3v-23c0-2-1.6-3.6-3.6-3.6c0,0,0,0,0,0h-49.4v-20.8h225.9V442H237V353.9z M369,276.4H143.1V262h225.9
	L369,276.4z M440.3,442h-64V258.4c0-2-1.6-3.6-3.6-3.6l0,0H139.4c-2,0-3.6,1.6-3.6,3.6V442h-64V230.6l121.9-45.4
	c1.4-0.5,2.4-1.9,2.4-3.4V97.3c0-0.7-0.2-1.3-0.5-1.9l59.2-25.2l61.6,25.5c-0.2,0.5-0.3,1-0.3,1.5v84.4c0,1.5,0.9,2.9,2.4,3.4
	l121.9,45.4L440.3,442z"/>
<path class="st0" d="M130.4,150.8c-0.4,0-8.6-1.3-8.6-13.2c0-1.1-0.9-1.9-2-1.8c-1,0-1.8,0.8-1.8,1.8c0,11.7-8.2,13.1-8.6,13.2
	c-1,0.1-1.8,1.1-1.6,2.2c0.1,0.8,0.8,1.5,1.6,1.6c0.3,0.1,8.6,1.4,8.6,13.2c0,1.1,0.9,1.9,2,1.8c1,0,1.8-0.8,1.8-1.8
	c0-11.7,8.2-13.1,8.6-13.2c1-0.1,1.8-1.1,1.6-2.1C131.9,151.6,131.2,150.9,130.4,150.8L130.4,150.8z M119.9,158.5
	c-1.2-2.4-3-4.5-5.3-5.9c2.3-1.4,4.1-3.5,5.3-5.9c1.2,2.4,3,4.5,5.3,5.9C122.9,154.1,121.1,156.1,119.9,158.5L119.9,158.5z"/>
<path class="st0" d="M272.5,338.7c-0.4,0-8.6-1.3-8.6-13.2c0-1.1-0.9-1.9-2-1.8c-1,0-1.8,0.8-1.8,1.8c0,11.7-8.2,13.1-8.6,13.2
	c-1,0.1-1.8,1.1-1.6,2.2c0.1,0.8,0.8,1.5,1.6,1.6c0.3,0.1,8.6,1.4,8.6,13.2c0,1.1,0.9,1.9,2,1.8c1,0,1.8-0.8,1.8-1.8
	c0-11.7,8.2-13.1,8.6-13.2c1-0.1,1.8-1.1,1.6-2.1C274,339.5,273.3,338.9,272.5,338.7L272.5,338.7z M262,346.5
	c-1.2-2.4-3-4.5-5.3-5.9c2.3-1.4,4.1-3.5,5.3-5.9c1.2,2.4,3,4.5,5.3,5.9C265,342,263.2,344.1,262,346.5L262,346.5z"/>
<path class="st0" d="M448.5,118.5c-0.4,0-8.6-1.3-8.6-13.2c0-1.1-0.9-1.9-2-1.8c-1,0-1.8,0.8-1.8,1.8c0,11.7-8.2,13.1-8.6,13.2
	c-1,0.1-1.8,1.1-1.6,2.2c0.1,0.8,0.8,1.5,1.6,1.6c0.3,0.1,8.6,1.4,8.6,13.2c0,1.1,0.9,1.9,2,1.8c1,0,1.8-0.8,1.8-1.8
	c0-11.7,8.2-13.1,8.6-13.2c1-0.1,1.8-1.1,1.6-2.1C450.1,119.3,449.4,118.6,448.5,118.5L448.5,118.5z M438.1,126.2
	c-1.2-2.4-3-4.5-5.3-5.9c2.3-1.4,4.1-3.5,5.3-5.9c1.2,2.4,3,4.5,5.3,5.9C441.1,121.8,439.2,123.8,438.1,126.2L438.1,126.2z"/>
<path class="st0" d="M65.6,126.9c0-1.1-0.9-1.9-2-1.8c-1,0-1.8,0.8-1.8,1.8c0,21.2-15.1,23.6-15.7,23.7c-1,0.2-1.8,1.1-1.6,2.2
	c0.1,0.8,0.8,1.5,1.6,1.6c0.2,0,15.7,2.4,15.7,23.7c0,1.1,0.9,1.9,2,1.8c1,0,1.8-0.8,1.8-1.8c0-21.2,15.1-23.6,15.7-23.7
	c1-0.1,1.8-1.1,1.6-2.2c-0.1-0.8-0.8-1.5-1.6-1.6C81.2,150.7,65.6,148.2,65.6,126.9z M63.7,166c-2.7-7.6-7.7-11.5-11.7-13.5
	c3.9-2,9-5.9,11.7-13.5c2.7,7.6,7.8,11.5,11.7,13.5C71.4,154.5,66.4,158.4,63.7,166z"/>
<path class="st0" d="M408.6,134.7c0-1.1-0.9-1.9-2-1.8c-1,0-1.8,0.8-1.8,1.8c0,21.2-15.1,23.6-15.7,23.7c-1,0.2-1.8,1.1-1.6,2.2
	c0.1,0.8,0.8,1.5,1.6,1.6c0.2,0,15.7,2.4,15.7,23.7c0,1.1,0.9,1.9,2,1.8c1,0,1.8-0.8,1.8-1.8c0-21.2,15.1-23.6,15.7-23.7
	c1-0.1,1.8-1.1,1.6-2.2c-0.1-0.8-0.8-1.5-1.6-1.6C424.2,158.4,408.6,156,408.6,134.7z M406.7,173.7c-2.7-7.6-7.7-11.5-11.7-13.5
	c3.9-2,9-5.9,11.7-13.5c2.7,7.6,7.8,11.5,11.7,13.5C414.4,162.2,409.4,166.2,406.7,173.7z"/>
<path class="st0" d="M296.9,346.2c-0.1-1.5-1.3-2.6-2.8-2.6c-1.4,0.1-2.5,1.2-2.6,2.6c0,29.6-21.1,33.1-22,33.2
	c-1.5,0.2-2.5,1.6-2.3,3c0.2,1.2,1.1,2.1,2.3,2.3c0.2,0,22,3.4,22,33.2c0.1,1.5,1.3,2.6,2.8,2.6c1.4-0.1,2.5-1.2,2.6-2.6
	c0-29.6,21.1-33.1,22-33.2c1.5-0.2,2.5-1.6,2.3-3c-0.2-1.2-1.1-2.1-2.3-2.3C318.7,379.3,296.9,376,296.9,346.2z M294.2,400.8
	c-3.8-10.6-10.8-16.1-16.3-18.8c5.5-2.8,12.5-8.2,16.3-18.8c3.8,10.6,10.9,16.1,16.3,18.8C305.1,384.8,298,390.2,294.2,400.8z"/>
</svg>
