<?xml version="1.0" encoding="utf-8"?>
<!-- Generator: Adobe Illustrator 26.0.2, SVG Export Plug-In . SVG Version: 6.00 Build 0)  -->
<svg version="1.1" id="Layer_1" xmlns="http://www.w3.org/2000/svg" xmlns:xlink="http://www.w3.org/1999/xlink" x="0px" y="0px"
	 viewBox="0 0 512 512" style="enable-background:new 0 0 512 512;" xml:space="preserve">
<style type="text/css">
	.st0{fill:#272F78;}
</style>
<path class="st0" d="M501.6,307.6c0.1-12.7-7.9-24.1-19.9-28.2l-2.6-0.9l1.2-2.5c7.1-15,0.7-32.9-14.3-40
	c-5.5-2.6-11.6-3.5-17.5-2.5V46.6c0-2.8-2.3-5.1-5.1-5.2H15.5c-2.8,0-5.2,2.3-5.2,5.2v312c0,2.8,2.3,5.1,5.1,5.1c0,0,0,0,0,0h320.2
	c0.2,0,0.4,0,0.6,0c1.5,3.6,3.8,6.9,6.5,9.7c8,8.1,20,10.9,30.8,7.2v84.9c0,2.8,2.3,5.1,5.2,5.1c1.5,0,2.9-0.7,3.9-1.8l25.9-30.4
	l25.9,30.4c1,1.1,2.4,1.8,3.9,1.8c0.6,0,1.2-0.1,1.8-0.3c2-0.7,3.4-2.7,3.4-4.8v-85c15.7,5.2,32.7-3.2,38-18.9
	c2.4-7.3,2-15.3-1.3-22.3l-1.2-2.5l2.6-0.9C493.7,331.7,501.7,320.3,501.6,307.6z M20.6,353.4V51.7h417.6V237l-0.4,0.2l-0.9-2.6
	c-4.2-12-15.5-20-28.2-19.9l0,0c-12.7-0.1-24.1,7.9-28.2,19.9l-0.9,2.6L377,236c-15-7.1-32.9-0.6-39.9,14.3
	c-3.8,8.1-3.8,17.5,0,25.6l1.2,2.5l-2.6,0.9c-15.6,5.6-23.7,22.8-18.1,38.4c3,8.4,9.7,15.1,18.1,18.1l2.6,0.9l-1.2,2.5
	c-2.1,4.4-3.1,9.2-2.9,14.1L20.6,353.4z M412.6,427.1c-1.8-2.2-5.1-2.4-7.3-0.6c-0.2,0.2-0.4,0.4-0.6,0.6L384,451.4v-63.8
	c9.4,13.6,28.1,17,41.7,7.6c3-2.1,5.6-4.6,7.6-7.6v63.8L412.6,427.1z M478.3,326.1l-8,2.9c-2.7,1-4.1,3.9-3.1,6.6
	c0.1,0.2,0.1,0.3,0.2,0.5l3.6,7.7c4.7,9.8,0.5,21.5-9.3,26.2c-5.3,2.5-11.6,2.5-16.9,0l-7.7-3.6c-2.6-1.2-5.6-0.1-6.9,2.4
	c-0.1,0.2-0.1,0.3-0.2,0.5l-2.9,8c-3.6,10.2-14.9,15.6-25.1,11.9c-5.6-2-9.9-6.4-11.9-11.9l-2.8-8c-0.7-2.1-2.7-3.4-4.9-3.4
	c-0.8,0-1.5,0.2-2.2,0.5l-7.7,3.6c-9.8,4.7-21.5,0.5-26.2-9.3c-2.5-5.3-2.5-11.6,0-16.9l3.6-7.7c1.2-2.6,0.1-5.6-2.4-6.9
	c-0.2-0.1-0.3-0.1-0.5-0.2l-8-2.9c-10.2-3.7-15.5-14.9-11.8-25.2c2-5.5,6.3-9.9,11.8-11.8l8-2.9c2.7-0.9,4.1-3.9,3.1-6.6
	c-0.1-0.2-0.1-0.3-0.2-0.5l-3.6-7.7c-4.7-9.8-0.5-21.5,9.3-26.2c5.3-2.5,11.6-2.5,16.9,0l7.7,3.6c2.6,1.2,5.6,0.1,6.9-2.4
	c0.1-0.2,0.1-0.3,0.2-0.5l2.8-8c3.6-10.2,14.9-15.6,25.1-11.9c5.6,2,9.9,6.4,11.9,11.9l2.9,8c0.9,2.7,3.9,4.1,6.5,3.2
	c0.2-0.1,0.3-0.1,0.5-0.2l7.7-3.6c9.8-4.7,21.5-0.5,26.2,9.3c2.5,5.3,2.5,11.5,0,16.8l-3.6,7.7c-1.2,2.6-0.1,5.7,2.5,6.9
	c0.2,0.1,0.3,0.1,0.5,0.2l8,2.9c10.2,3.7,15.5,14.9,11.8,25.2C488.1,319.8,483.8,324.1,478.3,326.1L478.3,326.1z"/>
<path class="st0" d="M408.7,252.8c-30.3,0-54.8,24.5-54.8,54.8c0,30.3,24.5,54.8,54.8,54.8c30.3,0,54.8-24.5,54.8-54.8c0,0,0,0,0,0
	C463.5,277.4,438.9,252.8,408.7,252.8z M408.7,352.1c-24.6,0-44.5-19.9-44.5-44.5s19.9-44.5,44.5-44.5s44.5,19.9,44.5,44.5
	c0,0,0,0,0,0C453.2,332.2,433.2,352.1,408.7,352.1z"/>
<path class="st0" d="M178.5,102.7c0-2.8-2.3-5.1-5.1-5.2c0,0,0,0,0,0H62.5c-2.8,0-5.2,2.3-5.2,5.2s2.3,5.2,5.2,5.2l0,0h110.8
	C176.1,107.9,178.5,105.6,178.5,102.7C178.5,102.7,178.5,102.7,178.5,102.7z"/>
<path class="st0" d="M109.5,164.6c0,2.8,2.3,5.1,5.1,5.1c0,0,0,0,0,0h229.6c2.8,0,5.1-2.3,5.1-5.1c0-2.8-2.3-5.2-5.1-5.2H114.6
	C111.8,159.5,109.5,161.8,109.5,164.6C109.5,164.6,109.5,164.6,109.5,164.6z"/>
<path class="st0" d="M317.3,211.3c0-2.8-2.3-5.1-5.1-5.1c0,0,0,0,0,0H114.6c-2.8,0-5.2,2.3-5.2,5.2c0,2.8,2.3,5.1,5.2,5.1l0,0h197.5
	C315,216.5,317.3,214.2,317.3,211.3C317.3,211.3,317.3,211.3,317.3,211.3z"/>
<path class="st0" d="M280.1,252.8H114.6c-2.8,0.1-5.1,2.5-4.9,5.4c0.1,2.7,2.3,4.8,4.9,4.9h165.4c2.8-0.1,5.1-2.5,4.9-5.4
	C284.9,255,282.8,252.9,280.1,252.8L280.1,252.8z"/>
</svg>
