<?xml version="1.0" encoding="utf-8"?>
<!-- Generator: Adobe Illustrator 26.0.2, SVG Export Plug-In . SVG Version: 6.00 Build 0)  -->
<svg version="1.1" id="Layer_1" xmlns="http://www.w3.org/2000/svg" xmlns:xlink="http://www.w3.org/1999/xlink" x="0px" y="0px"
	 viewBox="0 0 124.8 185.5" style="enable-background:new 0 0 124.8 185.5;" xml:space="preserve">
<style type="text/css">
	.st0{fill:#F59300;}
</style>
<path class="st0" d="M18,0C8.3,0,0.3,8,0.3,17.7v88.7c0,9.8,8,17.7,17.7,17.7h88.7c9.8,0,17.7-8,17.7-17.7V17.7
	c0-9.8-8-17.7-17.7-17.7H18z M93.7,49.1L58.2,84.5c-2.6,2.6-6.8,2.6-9.4,0L31.1,66.8c-2.6-2.6-2.6-6.8,0-9.4s6.8-2.6,9.4,0l13,13
	l30.8-30.8c2.6-2.6,6.8-2.6,9.4,0S96.3,46.5,93.7,49.1L93.7,49.1z"/>
</svg>
